<?xml version="1.0" encoding="utf-8"?>
<!-- Generator: Adobe Illustrator 26.3.1, SVG Export Plug-In . SVG Version: 6.00 Build 0)  -->
<svg version="1.1" id="Layer_1" xmlns="http://www.w3.org/2000/svg" xmlns:xlink="http://www.w3.org/1999/xlink" x="0px" y="0px"
	 viewBox="0 0 441.5 81.5" style="enable-background:new 0 0 441.5 81.5;" xml:space="preserve">
<style type="text/css">
	.st0{fill:#FFFFFF;}
</style>
<g id="Layer_2_00000080201391451822979420000008693348660509543088_">
	<g id="Layer_1-2">
		<path class="st0" d="M440,10.8c-2,0-9.4-7.3-9.4-9.4c-0.1-0.8-0.8-1.4-1.6-1.3c-0.7,0.1-1.3,0.6-1.3,1.3c0,2-7.3,9.4-9.4,9.4H23.1
			c-2,0-9.4-7.3-9.4-9.4c-0.1-0.8-0.8-1.4-1.6-1.3c-0.7,0.1-1.3,0.6-1.3,1.3c0,2-7.3,9.4-9.4,9.4c-0.8,0.1-1.4,0.8-1.3,1.6
			c0.1,0.7,0.6,1.3,1.3,1.3c2,0,9.4,7.3,9.4,9.3c-0.1,0.8,0.5,1.5,1.3,1.6c0.8,0.1,1.5-0.5,1.6-1.3c0-0.1,0-0.2,0-0.2
			c0-2,7.3-9.3,9.4-9.3h395.4c2,0,9.4,7.3,9.4,9.3c-0.1,0.8,0.5,1.5,1.3,1.6c0.8,0.1,1.5-0.5,1.6-1.3c0-0.1,0-0.2,0-0.2
			c0-2,7.3-9.3,9.4-9.3c0.8-0.1,1.4-0.8,1.3-1.6C441.3,11.4,440.8,10.9,440,10.8L440,10.8z M12.3,19.5c-2-2.8-4.4-5.3-7.3-7.3
			c2.8-2,5.3-4.4,7.3-7.3c2,2.8,4.4,5.3,7.3,7.3C16.7,14.2,14.2,16.7,12.3,19.5z M429.3,19.5c-2-2.8-4.4-5.3-7.3-7.3
			c2.8-2,5.3-4.4,7.2-7.3c2,2.8,4.4,5.3,7.3,7.3C433.7,14.2,431.2,16.7,429.3,19.5L429.3,19.5z"/>
		<path class="st0" d="M226.9,74c-0.1-0.4-0.5-0.7-0.9-0.7l-3-0.4l-1.3-2.7c-0.3-0.6-1-0.8-1.5-0.5c-0.2,0.1-0.3,0.3-0.5,0.5
			l-1.3,2.7l-3,0.4c-0.6,0.1-1,0.6-0.9,1.2c0,0.2,0.1,0.5,0.3,0.6l2.1,2.1l-0.5,3c-0.1,0.4,0.1,0.8,0.4,1.1c0.3,0.2,0.8,0.3,1.1,0.1
			l2.7-1.4l2.7,1.4c0.4,0.2,0.8,0.2,1.1-0.1c0.3-0.2,0.5-0.7,0.4-1.1l-0.5-3l2.2-2.1C226.9,74.8,227,74.4,226.9,74z"/>
	</g>
</g>
</svg>
