<?xml version="1.0" encoding="utf-8"?>
<!-- Generator: Adobe Illustrator 26.3.1, SVG Export Plug-In . SVG Version: 6.00 Build 0)  -->
<svg version="1.1" id="Layer_1" xmlns="http://www.w3.org/2000/svg" xmlns:xlink="http://www.w3.org/1999/xlink" x="0px" y="0px"
	 viewBox="0 0 220.7 48.2" style="enable-background:new 0 0 220.7 48.2;" xml:space="preserve">
<style type="text/css">
	.st0{fill:#FFFFFF;}
</style>
<g id="Layer_2_00000054225271659446691530000005468662362652515773_">
	<g id="Layer_1-2">
		<path class="st0" d="M220.5,13.9c-0.4-1.2-1.8-3.3-3.2-2.2c-0.2,0.1-0.3,0.4-0.3,0.6c0.1,0.6,0.6,1,0.9,1.5
			c0.5,0.8,0.6,1.8,0.2,2.7c-0.7,1.5-2.4,2.5-3.8,3.2c-3.3,1.7-7.2,1.7-10.7,1c-6.6-1.3-12.3-4.6-17.7-8.4c-1.8-2.3-4-4.2-6.4-5.7
			c-6.6-4-14.7-4.9-22.2-3.7c-5.5,1-10.8,3-15.4,6.1c-1.5-1.3-3.2-2.3-5-3.1c-4.1-2.1-8.7-3.1-13.3-2.8c-7.8,0.4-15,4-21.2,8.5
			C91.9,19.2,83.7,30,72.8,37c-4.7-6.3-4.9-15-0.5-21.6c2.3-3.5,5.7-6.2,9.8-7.4c1.9-0.5,4.1-0.6,5.6,0.8c1.3,1.1,1.7,2.8,1.1,4.3
			c-0.3,1,1,1.3,1.5,0.6c2.4-3.5-1.7-7.4-5-7.8c-4.7-0.5-9.4,2.7-12.3,6c-6.1,7.2-6.3,17.7-0.6,25.2c-1.8,1.1-3.7,2.1-5.7,3
			c-12.4,5.4-29.4,4.4-37.1-8.2c-3-5-4.4-11.3-2.8-17c2-6.6,7.7-11.5,14.6-12.4C47.9,2,55.7,6,54,13.5c-0.6,2.9-3,5.1-6.1,4.7
			c-2.5-0.4-5-2.2-4.9-5c0.1-1.7-2.6-1.7-2.6,0c-0.1,7.1,9.8,9.7,14,4.5c2.2-2.9,2.7-6.7,1.4-10c-1.5-3.4-4.4-6-8-7
			c-7.3-2.3-15.5,0.8-20.1,6.7c-3.6,4.7-5,10.7-3.9,16.5c-2.3-2.7-5.1-4.8-8.4-6.2c-2.7-1.2-5.6-1.8-8.6-1.7
			c-2.6,0.2-5.7,1.2-6.8,3.8c-0.4,0.9,0.6,1.8,1.3,1.1c3.9-3.7,9.8-3.4,14.4-1.1c3.3,1.8,6.2,4.2,8.6,7.1
			c1.7,6.1,5.7,11.4,11.1,14.8c6.6,4,14.7,4.9,22.2,3.7c5.7-1,11-3.2,15.8-6.4c4.9,4.4,11.4,6.6,18,6.2c7.8-0.4,15-4,21.2-8.5
			c3.9-2.9,7.5-6.1,11-9.5c6-5.8,11.9-11.8,18.9-16.1c2.5,2.8,4.1,6.3,4.6,10c0.6,4.2-0.2,8.4-2.3,12c-1.1,1.6-2.7,3.2-4.8,3.1
			c-1.6,0-3.1-1-3.7-2.5c-0.4-0.9-1.6-0.3-1.5,0.6c0.5,4.2,6.2,4.4,8.9,2.5c3.8-2.7,5.3-8.3,5.2-12.8c-0.1-5-2.1-9.9-5.7-13.4
			c1.6-1,3.3-1.8,5-2.6c12.4-5.4,29.4-4.4,37,8.2c3.1,5,4.4,11.3,2.8,17c-2,6.7-7.7,11.6-14.6,12.4c-6.4,0.8-14.2-3.3-12.6-10.8
			c0.6-2.9,3-5.1,6.1-4.7c2.5,0.4,5,2.2,4.9,5c-0.1,1.7,2.6,1.7,2.6,0c0.1-7.1-9.8-9.7-14-4.5c-2.2,2.9-2.7,6.7-1.4,10
			c1.5,3.4,4.4,6,8,7c7.3,2.3,15.4-0.8,20.1-6.7c4.2-5.2,5.1-12.1,3.5-18.5c-0.7-2.7-1.8-5.2-3.2-7.5c2.4,1.7,4.8,3.2,7.4,4.7
			c3.9,2.2,8.3,3.5,12.8,3.7c4,0.1,8.9-1,11.5-4.3C220.5,17.5,221,15.7,220.5,13.9z M116.7,31c-6.2,5.6-13.4,10.6-21.8,12.3
			c-7.1,1.4-15.3,0.4-20.9-4.5c9-5.9,16.4-14.4,24.4-21.5c6.3-5.6,13.4-10.6,21.8-12.3c3.9-0.8,7.9-0.8,11.8,0c0,0,0.1,0.1,0.1,0.1
			c3.3,0.6,6.3,2.1,8.9,4.2l0.1,0.1l0.1,0.1C132.2,15.3,124.7,23.8,116.7,31z"/>
	</g>
</g>
</svg>
