<?xml version="1.0" encoding="utf-8"?>
<!-- Generator: Adobe Illustrator 26.3.1, SVG Export Plug-In . SVG Version: 6.00 Build 0)  -->
<svg version="1.1" id="Layer_1" xmlns="http://www.w3.org/2000/svg" xmlns:xlink="http://www.w3.org/1999/xlink" x="0px" y="0px"
	 viewBox="0 0 35.3 35.3" style="enable-background:new 0 0 35.3 35.3;" xml:space="preserve">
<style type="text/css">
	.st0{fill:#FFFFFF;}
</style>
<g id="Layer_2_00000157266208145872155930000008077034944167859901_">
	<g id="Layer_1-2">
		<path class="st0" d="M17.7,35.3c-0.9,0-1.6-0.7-1.7-1.6c0,0,0,0,0-0.1c0-3.2-11.2-14.4-14.4-14.4c-0.9,0.1-1.7-0.6-1.8-1.5
			c-0.1-0.9,0.6-1.7,1.5-1.8c0.1,0,0.2,0,0.3,0C4.9,16,16,4.9,16,1.6c-0.1-0.9,0.6-1.7,1.5-1.8c0.9-0.1,1.7,0.6,1.8,1.5
			c0,0.1,0,0.2,0,0.3C19.3,4.9,30.4,16,33.7,16c0.9-0.1,1.7,0.6,1.8,1.5c0.1,0.9-0.6,1.7-1.5,1.8c-0.1,0-0.2,0-0.3,0
			c-3.2,0-14.4,11.2-14.4,14.4C19.3,34.6,18.6,35.3,17.7,35.3z M5.9,17.7c4.7,3.1,8.7,7.1,11.7,11.8c3.1-4.7,7.1-8.7,11.8-11.8
			c-4.7-3.1-8.7-7.1-11.8-11.7C14.6,10.6,10.6,14.6,5.9,17.7z"/>
	</g>
</g>
</svg>
